<svg width="115" height="12" viewBox="0 0 115 12" fill="none" xmlns="http://www.w3.org/2000/svg">
<path d="M0.518 6.114C0.518 5.162 0.737333 4.308 1.176 3.552C1.624 2.796 2.226 2.208 2.982 1.788C3.74733 1.35867 4.58267 1.144 5.488 1.144C6.524 1.144 7.44333 1.40067 8.246 1.914C9.058 2.418 9.646 3.13667 10.01 4.07H8.092C7.84 3.55667 7.49 3.174 7.042 2.922C6.594 2.67 6.076 2.544 5.488 2.544C4.844 2.544 4.27 2.68867 3.766 2.978C3.262 3.26733 2.86533 3.68267 2.576 4.224C2.296 4.76533 2.156 5.39533 2.156 6.114C2.156 6.83267 2.296 7.46267 2.576 8.004C2.86533 8.54533 3.262 8.96533 3.766 9.264C4.27 9.55333 4.844 9.698 5.488 9.698C6.076 9.698 6.594 9.572 7.042 9.32C7.49 9.068 7.84 8.68533 8.092 8.172H10.01C9.646 9.10533 9.058 9.824 8.246 10.328C7.44333 10.832 6.524 11.084 5.488 11.084C4.57333 11.084 3.738 10.874 2.982 10.454C2.226 10.0247 1.624 9.432 1.176 8.676C0.737333 7.92 0.518 7.066 0.518 6.114ZM15.2241 11.126C14.4961 11.126 13.8381 10.9627 13.2501 10.636C12.6621 10.3 12.2001 9.83333 11.8641 9.236C11.5281 8.62933 11.3601 7.92933 11.3601 7.136C11.3601 6.352 11.5328 5.65667 11.8781 5.05C12.2235 4.44333 12.6948 3.97667 13.2921 3.65C13.8895 3.32333 14.5568 3.16 15.2941 3.16C16.0315 3.16 16.6988 3.32333 17.2961 3.65C17.8935 3.97667 18.3648 4.44333 18.7101 5.05C19.0555 5.65667 19.2281 6.352 19.2281 7.136C19.2281 7.92 19.0508 8.61533 18.6961 9.222C18.3415 9.82867 17.8561 10.3 17.2401 10.636C16.6335 10.9627 15.9615 11.126 15.2241 11.126ZM15.2241 9.74C15.6348 9.74 16.0175 9.642 16.3721 9.446C16.7361 9.25 17.0301 8.956 17.2541 8.564C17.4781 8.172 17.5901 7.696 17.5901 7.136C17.5901 6.576 17.4828 6.10467 17.2681 5.722C17.0535 5.33 16.7688 5.036 16.4141 4.84C16.0595 4.644 15.6768 4.546 15.2661 4.546C14.8555 4.546 14.4728 4.644 14.1181 4.84C13.7728 5.036 13.4975 5.33 13.2921 5.722C13.0868 6.10467 12.9841 6.576 12.9841 7.136C12.9841 7.96667 13.1941 8.61067 13.6141 9.068C14.0435 9.516 14.5801 9.74 15.2241 9.74ZM30.1439 3.16C30.7505 3.16 31.2919 3.286 31.7679 3.538C32.2532 3.79 32.6312 4.16333 32.9019 4.658C33.1819 5.15267 33.3219 5.75 33.3219 6.45V11H31.7399V6.688C31.7399 5.99733 31.5672 5.47 31.2219 5.106C30.8765 4.73267 30.4052 4.546 29.8079 4.546C29.2105 4.546 28.7345 4.73267 28.3799 5.106C28.0345 5.47 27.8619 5.99733 27.8619 6.688V11H26.2799V6.688C26.2799 5.99733 26.1072 5.47 25.7619 5.106C25.4165 4.73267 24.9452 4.546 24.3479 4.546C23.7505 4.546 23.2745 4.73267 22.9199 5.106C22.5745 5.47 22.4019 5.99733 22.4019 6.688V11H20.8059V3.286H22.4019V4.168C22.6632 3.85067 22.9945 3.60333 23.3959 3.426C23.7972 3.24867 24.2265 3.16 24.6839 3.16C25.2999 3.16 25.8505 3.29067 26.3359 3.552C26.8212 3.81333 27.1945 4.19133 27.4559 4.686C27.6892 4.21933 28.0532 3.85067 28.5479 3.58C29.0425 3.3 29.5745 3.16 30.1439 3.16ZM44.6907 3.16C45.2974 3.16 45.8387 3.286 46.3147 3.538C46.8001 3.79 47.1781 4.16333 47.4487 4.658C47.7287 5.15267 47.8687 5.75 47.8687 6.45V11H46.2867V6.688C46.2867 5.99733 46.1141 5.47 45.7687 5.106C45.4234 4.73267 44.9521 4.546 44.3547 4.546C43.7574 4.546 43.2814 4.73267 42.9267 5.106C42.5814 5.47 42.4087 5.99733 42.4087 6.688V11H40.8267V6.688C40.8267 5.99733 40.6541 5.47 40.3087 5.106C39.9634 4.73267 39.4921 4.546 38.8947 4.546C38.2974 4.546 37.8214 4.73267 37.4667 5.106C37.1214 5.47 36.9487 5.99733 36.9487 6.688V11H35.3527V3.286H36.9487V4.168C37.2101 3.85067 37.5414 3.60333 37.9427 3.426C38.3441 3.24867 38.7734 3.16 39.2307 3.16C39.8467 3.16 40.3974 3.29067 40.8827 3.552C41.3681 3.81333 41.7414 4.19133 42.0027 4.686C42.2361 4.21933 42.6001 3.85067 43.0947 3.58C43.5894 3.3 44.1214 3.16 44.6907 3.16ZM56.8856 3.286V11H55.2896V10.09C55.0376 10.4073 54.7063 10.6593 54.2956 10.846C53.8943 11.0233 53.4649 11.112 53.0076 11.112C52.4009 11.112 51.8549 10.986 51.3696 10.734C50.8936 10.482 50.5156 10.1087 50.2356 9.614C49.9649 9.11933 49.8296 8.522 49.8296 7.822V3.286H51.4116V7.584C51.4116 8.27467 51.5843 8.80667 51.9296 9.18C52.2749 9.544 52.7463 9.726 53.3436 9.726C53.9409 9.726 54.4123 9.544 54.7576 9.18C55.1123 8.80667 55.2896 8.27467 55.2896 7.584V3.286H56.8856ZM62.8834 3.16C63.4901 3.16 64.0314 3.286 64.5074 3.538C64.9927 3.79 65.3707 4.16333 65.6414 4.658C65.9121 5.15267 66.0474 5.75 66.0474 6.45V11H64.4654V6.688C64.4654 5.99733 64.2927 5.47 63.9474 5.106C63.6021 4.73267 63.1307 4.546 62.5334 4.546C61.9361 4.546 61.4601 4.73267 61.1054 5.106C60.7601 5.47 60.5874 5.99733 60.5874 6.688V11H58.9914V3.286H60.5874V4.168C60.8487 3.85067 61.1801 3.60333 61.5814 3.426C61.9921 3.24867 62.4261 3.16 62.8834 3.16ZM68.8952 2.264C68.6059 2.264 68.3632 2.166 68.1672 1.97C67.9712 1.774 67.8732 1.53133 67.8732 1.242C67.8732 0.952666 67.9712 0.71 68.1672 0.514C68.3632 0.318 68.6059 0.219999 68.8952 0.219999C69.1752 0.219999 69.4132 0.318 69.6092 0.514C69.8052 0.71 69.9032 0.952666 69.9032 1.242C69.9032 1.53133 69.8052 1.774 69.6092 1.97C69.4132 2.166 69.1752 2.264 68.8952 2.264ZM69.6792 3.286V11H68.0832V3.286H69.6792ZM71.2426 7.136C71.2426 6.34267 71.4013 5.64733 71.7186 5.05C72.0453 4.44333 72.4933 3.97667 73.0626 3.65C73.6319 3.32333 74.2853 3.16 75.0226 3.16C75.9559 3.16 76.7259 3.384 77.3326 3.832C77.9486 4.27067 78.3639 4.90067 78.5786 5.722H76.8566C76.7166 5.33933 76.4926 5.04067 76.1846 4.826C75.8766 4.61133 75.4893 4.504 75.0226 4.504C74.3693 4.504 73.8466 4.73733 73.4546 5.204C73.0719 5.66133 72.8806 6.30533 72.8806 7.136C72.8806 7.96667 73.0719 8.61533 73.4546 9.082C73.8466 9.54867 74.3693 9.782 75.0226 9.782C75.9466 9.782 76.5579 9.376 76.8566 8.564H78.5786C78.3546 9.348 77.9346 9.97333 77.3186 10.44C76.7026 10.8973 75.9373 11.126 75.0226 11.126C74.2853 11.126 73.6319 10.9627 73.0626 10.636C72.4933 10.3 72.0453 9.83333 71.7186 9.236C71.4013 8.62933 71.2426 7.92933 71.2426 7.136ZM79.6371 7.108C79.6371 6.33333 79.7958 5.64733 80.1131 5.05C80.4398 4.45267 80.8785 3.99067 81.4291 3.664C81.9891 3.328 82.6051 3.16 83.2771 3.16C83.8838 3.16 84.4111 3.28133 84.8591 3.524C85.3165 3.75733 85.6805 4.05133 85.9511 4.406V3.286H87.5611V11H85.9511V9.852C85.6805 10.216 85.3118 10.5193 84.8451 10.762C84.3785 11.0047 83.8465 11.126 83.2491 11.126C82.5865 11.126 81.9798 10.958 81.4291 10.622C80.8785 10.2767 80.4398 9.80067 80.1131 9.194C79.7958 8.578 79.6371 7.88267 79.6371 7.108ZM85.9511 7.136C85.9511 6.604 85.8391 6.142 85.6151 5.75C85.4005 5.358 85.1158 5.05933 84.7611 4.854C84.4065 4.64867 84.0238 4.546 83.6131 4.546C83.2025 4.546 82.8198 4.64867 82.4651 4.854C82.1105 5.05 81.8211 5.344 81.5971 5.736C81.3825 6.11867 81.2751 6.576 81.2751 7.108C81.2751 7.64 81.3825 8.10667 81.5971 8.508C81.8211 8.90933 82.1105 9.21733 82.4651 9.432C82.8291 9.63733 83.2118 9.74 83.6131 9.74C84.0238 9.74 84.4065 9.63733 84.7611 9.432C85.1158 9.22667 85.4005 8.928 85.6151 8.536C85.8391 8.13467 85.9511 7.668 85.9511 7.136ZM91.5194 4.588V8.858C91.5194 9.14733 91.5848 9.35733 91.7154 9.488C91.8554 9.60933 92.0888 9.67 92.4154 9.67H93.3954V11H92.1354C91.4168 11 90.8661 10.832 90.4834 10.496C90.1008 10.16 89.9094 9.614 89.9094 8.858V4.588H88.9994V3.286H89.9094V1.368H91.5194V3.286H93.3954V4.588H91.5194ZM95.6784 2.264C95.3891 2.264 95.1464 2.166 94.9504 1.97C94.7544 1.774 94.6564 1.53133 94.6564 1.242C94.6564 0.952666 94.7544 0.71 94.9504 0.514C95.1464 0.318 95.3891 0.219999 95.6784 0.219999C95.9584 0.219999 96.1964 0.318 96.3924 0.514C96.5884 0.71 96.6864 0.952666 96.6864 1.242C96.6864 1.53133 96.5884 1.774 96.3924 1.97C96.1964 2.166 95.9584 2.264 95.6784 2.264ZM96.4624 3.286V11H94.8664V3.286H96.4624ZM101.904 11.126C101.176 11.126 100.518 10.9627 99.9298 10.636C99.3418 10.3 98.8798 9.83333 98.5438 9.236C98.2078 8.62933 98.0398 7.92933 98.0398 7.136C98.0398 6.352 98.2125 5.65667 98.5578 5.05C98.9031 4.44333 99.3745 3.97667 99.9718 3.65C100.569 3.32333 101.236 3.16 101.974 3.16C102.711 3.16 103.378 3.32333 103.976 3.65C104.573 3.97667 105.044 4.44333 105.39 5.05C105.735 5.65667 105.908 6.352 105.908 7.136C105.908 7.92 105.73 8.61533 105.376 9.222C105.021 9.82867 104.536 10.3 103.92 10.636C103.313 10.9627 102.641 11.126 101.904 11.126ZM101.904 9.74C102.314 9.74 102.697 9.642 103.052 9.446C103.416 9.25 103.71 8.956 103.934 8.564C104.158 8.172 104.27 7.696 104.27 7.136C104.27 6.576 104.162 6.10467 103.948 5.722C103.733 5.33 103.448 5.036 103.094 4.84C102.739 4.644 102.356 4.546 101.946 4.546C101.535 4.546 101.152 4.644 100.798 4.84C100.452 5.036 100.177 5.33 99.9718 5.722C99.7665 6.10467 99.6638 6.576 99.6638 7.136C99.6638 7.96667 99.8738 8.61067 100.294 9.068C100.723 9.516 101.26 9.74 101.904 9.74ZM111.378 3.16C111.984 3.16 112.526 3.286 113.002 3.538C113.487 3.79 113.865 4.16333 114.136 4.658C114.406 5.15267 114.542 5.75 114.542 6.45V11H112.96V6.688C112.96 5.99733 112.787 5.47 112.442 5.106C112.096 4.73267 111.625 4.546 111.028 4.546C110.43 4.546 109.954 4.73267 109.6 5.106C109.254 5.47 109.082 5.99733 109.082 6.688V11H107.486V3.286H109.082V4.168C109.343 3.85067 109.674 3.60333 110.076 3.426C110.486 3.24867 110.92 3.16 111.378 3.16Z" fill="white"/>
</svg>
